# xmcd
#
# Track frame offsets:
#	150
#	1118
#	35212
#	60038
#	138143
#	162805
#	195289
#	226952
#	263569
#
# Disc length: 3847 seconds
#
# Revision: 1
# Processed by: cddbd v1.5.1PL0 Copyright (c) Steve Scherf et al.
# Submitted via: CDmax 2.0
#
DISCID=5d0f0509
DTITLE=Hot Tuna w/ Barry Mitterhoff - Live in Cleveland - 07.11.2004 - d2
DYEAR=2004
DGENRE=Blues
TTITLE0=[ fade in ]
TTITLE1=Uncle Sam Blues
TTITLE2=Living In The Moment
TTITLE3=Good Shepherd
TTITLE4=I'm The Light Of This World
TTITLE5=Blues Stay Away From Me
TTITLE6=Just Because
TTITLE7=San Francisco Bay Blues
TTITLE8=Hesitation Blues
EXTD=Hot Tuna\n2004-07-11\nCleveland, OH - Beachland Ballroom\n\nTaper
EXTD=:      Brian Skalinder\nLocation:   Center, 25' back, ~5' stand (seate
EXTD=d audience]\nConfig:     DIN (20cm, 90§]\nSource:     Schoeps MK41/KC5/C
EXTD=MC6 > Lunatec V3 (16-bit/44.1kHz) > Hosa ODL-312 > Nomad JB3\nConversion
EXTD=: Nomad JB3 > Adaptec FireConnect 4300 > Notmad Explorer > PC\nEditing
EXTD=:    Cool Edit Pro 2.0 (applause compression, fades), CD-Wave (tracking)
EXTD=\n\nJorma Kaukonen      - guitar\nJack Casady         - bass\nw/ Barry M
EXTD=itterhoff - mandolin, tenor guitar\n\nDISC ONE\n\n01. [ intro ]\n02. [ J
EXTD=orma for President ]\n03. Blue Railroad Train\n04. How Long Blues\n05. W
EXTD=aiting For A Train\n06. Death Don't Have No Mercy\n07. Do Not Go Gentle\
EXTD=n08. Serpent Of Dreams\n09. Heart Temporary\n10. That'll Never Happen N
EXTD=o More\n11. Big River Blues\n12. Been So Long\n13. Prohibition Blues\n14
EXTD=[ fade out ]\n\nDISC TWO\n\n01. [ fade in ]\n02. Uncle Sam Blues\n03
EXTD=Living In The Moment\n04. Good Shepherd\n05. I'm The Light Of This Wor
EXTD=ld\n06. Blues Stay Away From Me\n07. Just Because\n\nENCORE 1\n\n08. Sa
EXTD=n Francisco Bay Blues\n\nENCORE 2\n\n09. Hesitation Blues\n\nNOTES:\n\nT
EXTD=o seamlessly join the two discs, simply remove D1T14 and D2T01!\n\nRe-se
EXTD=eded from bt.etree.org\nRe-encoded in shn\nRe-shared with joy\n\nEnjoy !
EXTT0=
EXTT1=
EXTT2=
EXTT3=
EXTT4=
EXTT5=
EXTT6=
EXTT7=
EXTT8=
PLAYORDER=
